# AST/ASF file generated using VICON BodyLanguage
# -----------------------------------------------
:version 1.10
:name VICON
:units
  mass 1.0
  length 0.45
  angle deg
:documentation
   .ast/.asf automatically generated from VICON data using
   VICON BodyBuilder and BodyLanguage model FoxedUp or BRILLIANT.MOD
:root
   order TX TY TZ RX RY RZ
   axis XYZ
   position 0 0 0  
   orientation 0 0 0 
:bonedata
  begin
     id 1 
     name lhipjoint
     direction 0.635376 -0.686425 0.353719 
     length 2.47244 
     axis 0 0 0  XYZ
  end
  begin
     id 2 
     name lfemur
     direction 0.34202 -0.939693 0  
     length 7.25268  
     axis 0 0 20  XYZ
    dof rx ry rz
    limits (-160.0 20.0)
           (-70.0 70.0)
           (-60.0 70.0)
  end
  begin
     id 3 
     name ltibia
     direction 0.34202 -0.939693 0   
     length 7.6767   
     axis 0 0 20   XYZ
    dof rx
    limits (-10.0 170.0)
  end
  begin
     id 4 
     name lfoot
     direction 0.0803374 -0.220725 0.972022   
     length 2.22945   
     axis -90 7.62852e-016 20   XYZ
    dof rx rz
    limits (-45.0 90.0)
           (-70.0 20.0)
  end
  begin
     id 5 
     name ltoes
     direction 1.53579e-011 -4.21994e-011 1   
     length 1.11848   
     axis -90 7.62852e-016 20   XYZ
    dof rx
    limits (-90.0 20.0)
  end
  begin
     id 6 
     name rhipjoint
     direction -0.664428 -0.664335 0.342336   
     length 2.55466  
     axis 0 0 0  XYZ 
  end
  begin
     id 7 
     name rfemur
     direction -0.34202 -0.939693 0   
     length 6.83172   
     axis 0 0 -20   XYZ
    dof rx ry rz
    limits (-160.0 20.0)
           (-70.0 70.0)
           (-70.0 60.0)
  end
  begin
     id 8 
     name rtibia
     direction -0.34202 -0.939693 0   
     length 7.62692   
     axis 0 0 -20   XYZ
    dof rx
    limits (-10.0 170.0)
 end
 begin
     id 9 
     name rfoot
     direction -0.0949276 -0.260811 0.960711   
     length 2.19684  
     axis -90 -7.62852e-016 -20   XYZ
    dof rx rz
    limits (-45.0 90.0)
           (-20.0 70.0)
  end
  begin
     id 10 
     name rtoes
     direction -1.53543e-011 -4.2183e-011 1   
     length 1.09848   
     axis -90 -7.62852e-016 -20   XYZ
    dof rx
    limits (-90.0 20.0)
  end
  begin
     id 11 
     name lowerback
     direction 0.0118782 0.999815 -0.0151555   
     length 2.15772   
     axis 0 0 0   XYZ
    dof rx ry rz
    limits (-20.0 45.0)
           (-30.0 30.0)
           (-30.0 30.0)
  end
  begin
     id 12 
     name upperback
     direction 0.00130825 0.999065 0.0432113   
     length 2.14863   
     axis 0 0 0   XYZ
    dof rx ry rz
    limits (-20.0 45.0)
           (-30.0 30.0)
           (-30.0 30.0)
  end
  begin
     id 13 
     name thorax
     direction -0.00347005 0.998773 0.0494011   
     length 2.14936   
     axis 0 0 0   XYZ
    dof rx ry rz
    limits (-20.0 45.0)
           (-30.0 30.0)
           (-30.0 30.0)
  end
  begin
     id 14 
     name lowerneck
     direction -0.0262159 0.99424 0.103921   
     length 1.69373   
     axis 0 0 0   XYZ
    dof rx ry rz
    limits (-20.0 45.0)
           (-30.0 30.0)
           (-30.0 30.0)
  end
  begin
     id 15 
     name upperneck
     direction 0.0353511 0.977394 -0.20845   
     length 1.70857   
     axis 0 0 0   XYZ
    dof rx ry rz
    limits (-20.0 45.0)
           (-30.0 30.0)
           (-30.0 30.0)
  end
  begin
     id 16
     name head
     direction 0.0139214 0.996594 -0.0812836  
     length 1.72777  
     axis 0 0 0   XYZ
    dof rx ry rz
    limits (-20.0 45.0)
           (-30.0 30.0)
           (-30.0 30.0)
  end
  begin
     id 17 
     name lclavicle
     direction 0.841247 0.537205 -0.0609508  
     length 3.55371  
     axis 0 0 0   XYZ
    dof ry rz
    limits (-20.0 10.0)
           (0.0 20.0)
  end
  begin
     id 18 
     name lhumerus
     direction 1 -4.48964e-011 1.60116e-018   
     length 4.91377   
     axis -180 -30 -90   XYZ
    dof rx ry rz
    limits (-60.0 90.0)
           (-90.0 90.0)
           (-90.0 90.0)
  end
  begin
     id 19
     name lradius
     direction 1 -4.48989e-011 -8.93847e-027   
     length 3.00291   
     axis -180 -30 -90   XYZ
    dof rx
    limits (-10.0 170.0)
  end
  begin
     id 20
     name lwrist
     direction 1 -4.48932e-011 -7.31504e-027   
     length 1.50145   
     axis 5.74121e-015 90 90   XYZ
    dof ry
    limits (-180.0 0.0)
 end
  begin
     id 21 
     name lhand
     direction 1 -4.48971e-011 -1.46301e-026   
     length 0.450922   
     axis 9.33524e-015 90 90   XYZ
    dof rx rz
    limits (-90.0 90.0)
           (-45.0 45.0)
  end
  begin
     id 22 
     name lfingers
     direction 1 -4.49039e-011 -2.92602e-026   
     length 0.363545   
     axis 1.86705e-014 90 90   XYZ
    dof rx
    limits (0.0 90.0)
  end
  begin
     id 23
     name lthumb
     direction 0.707107 -6.34941e-011 0.707107   
     length 0.52198   
     axis -90 45 2.85299e-015   XYZ
    dof rx rz
    limits (-45.0 45.0)
           (-45.0 45.0)
  end
  begin
     id 24 
     name rclavicle
     direction -0.825079 0.56158 -0.0622297   
     length 3.39909  
     axis 0 0 0   XYZ 
    dof ry rz
    limits (-10.0 20.0)
           (-20.0 0.0)
  end
  begin
     id 25 
     name rhumerus
     direction -1 -4.48965e-011 1.61691e-027  
     length 4.86725   
     axis -180 30 90   XYZ
    dof rx ry rz
    limits (-90.0 60.0)
           (-90.0 90.0)
           (-90.0 90.0)
  end
  begin
     id 26 
     name rradius
     direction -1 -4.48964e-011 -2.25776e-027   
     length 3.17144   
     axis -180 30 90   XYZ
    dof rx
    limits (-10.0 170.0)
  end
  begin
     id 27 
     name rwrist
     direction -1 -4.48961e-011 -7.31504e-027   
     length 1.58572   
     axis 5.74121e-015 -90 -90   XYZ
    dof ry
    limits (-180.0 0.0)
  end
  begin
     id 28
     name rhand
     direction -1 -4.49013e-011 -1.46301e-026   
     length 0.419368   
     axis 9.33524e-015 -90 -90   XYZ
    dof rx rz
    limits (-90.0 90.0)
           (-45.0 45.0)
  end
  begin
     id 29
     name rfingers
     direction -1 -4.489e-011 -2.92602e-026   
     length 0.338105   
     axis 1.86705e-014 -90 -90   XYZ
    dof rx
    limits (0.0 90.0)
  end
  begin
     id 30
     name rthumb
     direction -0.707107 -6.35022e-011 0.707107   
     length 0.485453   
     axis -90 -45 -2.85299e-015   XYZ
    dof rx rz
    limits (-45.0 45.0)
           (-45.0 45.0)
  end
:hierarchy
  begin
    root lhipjoint rhipjoint lowerback
    lhipjoint lfemur
    lfemur ltibia
    ltibia lfoot
    lfoot ltoes
    rhipjoint rfemur
    rfemur rtibia
    rtibia rfoot
    rfoot rtoes
    lowerback upperback
    upperback thorax
    thorax lowerneck lclavicle rclavicle
    lowerneck upperneck
    upperneck head
    lclavicle lhumerus
    lhumerus lradius
    lradius lwrist
    lwrist lhand lthumb
    lhand lfingers
    rclavicle rhumerus
    rhumerus rradius
    rradius rwrist
    rwrist rhand rthumb
    rhand rfingers
  end

#!OML:ASF H:\Swim 2\Project 1\Capture day 1\Session 1\male.ASF
:FULLY-SPECIFIED
:DEGREES
56
root -0.416201 14.8128 8.31843 116.571 3.41631 3.12486
lowerback -20.7925 2.1658 -3.13382
upperback -7.86959 3.69108 -0.0562445
thorax 2.87177 1.99155 2.5534
lowerneck -13.4338 -6.10163 -0.269077
upperneck 43.928 -8.0385 -1.15713
head 18.9403 -3.05067 -1.93206
rclavicle 1.90833e-014 -1.40392e-014
rhumerus 98.6796 -33.7901 -24.9133
rradius 30.5349
rwrist -4.12608
rhand -11.7395 -21.37
rfingers 7.12502
rthumb 14.308 -50.857
lclavicle 1.90833e-014 -1.40392e-014
lhumerus 69.2767 29.5927 -23.4738
lradius 24.3814
lwrist -21.7747
lhand -37.3539 36.7543
lfingers 7.12502
lthumb -10.416 66.4763
rfemur -38.532 0.476842 20.0247
rtibia 27.313
rfoot 6.89066 -4.64053
rtoes -1.69228
lfemur -42.6258 -12.4445 -13.8514
ltibia 29.3663
lfoot -5.30908 -1.86046
ltoes -26.4468
57
root -0.42146 14.8113 8.29329 116.349 3.31746 3.1738
lowerback -20.7676 2.15207 -3.08534
upperback -7.77875 3.66026 -0.0678931
thorax 2.96312 1.96976 2.50901
lowerneck -13.3799 -6.10452 -0.264812
upperneck 43.9994 -8.05578 -1.13483
head 18.9726 -3.05193 -1.92596
rclavicle 6.20208e-014 -8.4732e-015
rhumerus 98.6511 -33.6722 -25.0683
rradius 30.5273
rwrist -4.38769
rhand -11.634 -21.3568
rfingers 7.12502
rthumb 14.4097 -50.8366
lclavicle 6.20208e-014 -8.4732e-015
lhumerus 69.4507 29.5581 -23.3338
lradius 24.3919
lwrist -21.9075
lhand -37.7135 37.3816
lfingers 7.12502
lthumb -10.7629 67.0858
rfemur -38.9813 -0.300089 20.4937
rtibia 29.3929
rfoot 7.83617 -3.51024
rtoes -1.30333
lfemur -42.7364 -12.268 -14.1657
ltibia 30.8331
lfoot -4.85819 -3.41679
ltoes -24.5503
58
root -0.426749 14.807 8.26646 116.05 3.2128 3.23817
lowerback -20.7158 2.13842 -3.04294
upperback -7.67016 3.62981 -0.0808002
thorax 3.05946 1.94777 2.46593
lowerneck -13.3247 -6.10651 -0.274169
upperneck 44.0636 -8.07085 -1.10328
head 19.0019 -3.05351 -1.9123
rclavicle 3.18055e-014 -6.18717e-015
rhumerus 98.6521 -33.555 -25.2623
rradius 30.5045
rwrist -4.56799
rhand -11.4983 -21.3268
rfingers 7.12502
rthumb 14.5404 -50.7972
lclavicle 3.18055e-014 -6.18717e-015
lhumerus 69.7419 29.5527 -22.9971
lradius 24.3975
lwrist -22.1587
lhand -38.0703 37.9582
lfingers 7.12502
lthumb -11.107 67.6442
rfemur -39.4168 -1.09591 20.9639
rtibia 31.6923
rfoot 8.87691 -2.6478
rtoes -0.422795
lfemur -42.7836 -12.173 -14.4623
ltibia 32.4398
lfoot -4.26498 -4.96838
ltoes -22.4199
59
root -0.432019 14.7997 8.23898 115.673 3.10055 3.30436
lowerback -20.6392 2.12945 -3.01571
upperback -7.54263 3.60805 -0.0943296
thorax 3.16199 1.92997 2.432
lowerneck -13.2719 -6.11123 -0.291985
upperneck 44.1298 -8.08427 -1.07798
head 19.0334 -3.05613 -1.89986
rclavicle -1.59028e-015 -9.56651e-015
rhumerus 98.6959 -33.4286 -25.5085
rradius 30.4646
rwrist -4.64058
rhand -11.3496 -21.269
rfingers 7.12502
rthumb 14.6837 -50.7291
lclavicle -1.59028e-015 -9.56651e-015
lhumerus 70.1256 29.5596 -22.5169
lradius 24.4019
lwrist -22.435
lhand -38.446 38.4777
lfingers 7.12502
lthumb -11.4694 68.1439
rfemur -39.8113 -1.89691 21.415
rtibia 34.1263
rfoot 9.97205 -2.01571
rtoes 0.744942
lfemur -42.7489 -12.1345 -14.7548
ltibia 34.1509
lfoot -3.55704 -6.42167
ltoes -20.1404
60
root -0.437435 14.7898 8.21217 115.22 2.98353 3.35839
lowerback -20.5378 2.12952 -3.01682
upperback -7.39737 3.60346 -0.103416
thorax 3.26754 1.92108 2.42188
lowerneck -13.2177 -6.12162 -0.322214
upperneck 44.2016 -8.09969 -1.05727
head 19.0686 -3.06132 -1.88776
rclavicle 9.54166e-015 -4.5969e-015
rhumerus 98.7651 -33.2938 -25.7732
rradius 30.4171
rwrist -4.64165
rhand -11.2125 -21.1606
rfingers 7.12502
rthumb 14.8158 -50.6109
lclavicle 9.54166e-015 -4.5969e-015
lhumerus 70.5424 29.554 -22.0049
lradius 24.4056
lwrist -22.6327
lhand -38.8486 38.9617
lfingers 7.12502
lthumb -11.8577 68.6059
rfemur -40.1366 -2.67929 21.8308
rtibia 36.6076
rfoot 11.0768 -1.56912
rtoes 2.0396
lfemur -42.624 -12.1134 -15.0563
ltibia 35.9381
lfoot -2.78102 -7.70186
ltoes -17.8489
61
root -0.443074 14.7778 8.18751 114.712 2.8756 3.39073
lowerback -20.4257 2.14411 -3.04194
upperback -7.24117 3.62301 -0.103595
thorax 3.37565 1.92475 2.43991
lowerneck -13.1622 -6.1409 -0.359272
upperneck 44.2875 -8.12075 -1.04834
head 19.1122 -3.07001 -1.88134
rclavicle 3.18055e-015 5.26531e-014
rhumerus 98.8295 -33.1564 -26.0137
rradius 30.3785
rwrist -4.61253
rhand -11.1084 -21.0491
rfingers 7.12502
rthumb 14.9161 -50.4921
lclavicle 3.18055e-015 5.26531e-014
lhumerus 70.8807 29.511 -21.6508
lradius 24.4037
lwrist -22.6835
lhand -39.2407 39.5022
lfingers 7.12502
lthumb -12.2358 69.1242
rfemur -40.3901 -3.42266 22.2149
rtibia 39.0584
rfoot 12.1507 -1.25552
rtoes 3.2759
lfemur -42.4246 -12.0638 -15.3611
ltibia 37.7734
lfoot -1.98926 -8.76504
ltoes -15.6998
